<svg width="24" height="28" viewBox="0 0 24 28" fill="none" xmlns="http://www.w3.org/2000/svg">
<path fill-rule="evenodd" clip-rule="evenodd" d="M4 24L10 24L10 28L4 28C1.79086 28 1.75079e-06 26.2091 1.55766e-06 24L5.53125e-06 4C5.33812e-06 1.79086 1.79086 3.42355e-08 4 -1.58894e-07L16.8284 6.26959e-07L24 7.17157L24 14L20 14L20 10L14 10L14 4L4 4L4 24Z" fill="#5C426C"/>
<path fill-rule="evenodd" clip-rule="evenodd" d="M24 24L12 24L12 20L24 20V24Z" fill="#5C426C"/>
<path fill-rule="evenodd" clip-rule="evenodd" d="M16 28L16 16L20 16L20 28L16 28Z" fill="#5C426C"/>
</svg>
