<svg width="16" height="16" viewBox="0 0 16 16" fill="none" xmlns="http://www.w3.org/2000/svg">
<path fill-rule="evenodd" clip-rule="evenodd" d="M8.00003 15.1111C4.07267 15.1111 0.888916 11.9274 0.888916 8C0.888916 4.07264 4.07267 0.888885 8.00003 0.888885C11.9274 0.888885 15.1111 4.07264 15.1111 8C15.1111 9.88598 14.3619 11.6947 13.0283 13.0283C11.6947 14.3619 9.88601 15.1111 8.00003 15.1111ZM8.00003 1.77777C4.56359 1.77777 1.7778 4.56356 1.7778 8C1.7778 11.4364 4.56359 14.2222 8.00003 14.2222C11.4365 14.2222 14.2222 11.4364 14.2222 8C14.2222 4.56356 11.4365 1.77777 8.00003 1.77777ZM10.8756 5.84L8.71558 8L10.8134 10.0844C10.9644 10.2608 10.9542 10.5236 10.7901 10.6878C10.6259 10.852 10.363 10.8621 10.1867 10.7111L8.08003 8.60444L5.96003 10.7244C5.85141 10.8513 5.68086 10.9065 5.51851 10.8675C5.35615 10.8284 5.22939 10.7016 5.19033 10.5393C5.15128 10.3769 5.20653 10.2064 5.33336 10.0978L7.4578 8L5.28892 5.80444C5.1379 5.6281 5.14806 5.36524 5.31222 5.20108C5.47639 5.03692 5.73924 5.02676 5.91558 5.17777L8.08892 7.35111L10.2489 5.21333C10.4253 5.06232 10.6881 5.07247 10.8523 5.23664C11.0164 5.4008 11.0266 5.66366 10.8756 5.84Z" fill="black"/>
<mask id="mask0_3_67" style="mask-type:luminance" maskUnits="userSpaceOnUse" x="0" y="0" width="16" height="16">
<path fill-rule="evenodd" clip-rule="evenodd" d="M8.00003 15.1111C4.07267 15.1111 0.888916 11.9274 0.888916 8C0.888916 4.07264 4.07267 0.888885 8.00003 0.888885C11.9274 0.888885 15.1111 4.07264 15.1111 8C15.1111 9.88598 14.3619 11.6947 13.0283 13.0283C11.6947 14.3619 9.88601 15.1111 8.00003 15.1111ZM8.00003 1.77777C4.56359 1.77777 1.7778 4.56356 1.7778 8C1.7778 11.4364 4.56359 14.2222 8.00003 14.2222C11.4365 14.2222 14.2222 11.4364 14.2222 8C14.2222 4.56356 11.4365 1.77777 8.00003 1.77777ZM10.8756 5.84L8.71558 8L10.8134 10.0844C10.9644 10.2608 10.9542 10.5236 10.7901 10.6878C10.6259 10.852 10.363 10.8621 10.1867 10.7111L8.08003 8.60444L5.96003 10.7244C5.85141 10.8513 5.68086 10.9065 5.51851 10.8675C5.35615 10.8284 5.22939 10.7016 5.19033 10.5393C5.15128 10.3769 5.20653 10.2064 5.33336 10.0978L7.4578 8L5.28892 5.80444C5.1379 5.6281 5.14806 5.36524 5.31222 5.20108C5.47639 5.03692 5.73924 5.02676 5.91558 5.17777L8.08892 7.35111L10.2489 5.21333C10.4253 5.06232 10.6881 5.07247 10.8523 5.23664C11.0164 5.4008 11.0266 5.66366 10.8756 5.84Z" fill="white"/>
</mask>
<g mask="url(#mask0_3_67)">
<rect width="16" height="16" fill="#737373"/>
</g>
</svg>
