<svg width="24" height="24" viewBox="0 0 24 24" fill="none" xmlns="http://www.w3.org/2000/svg">
<path d="M12.94 12L18.4667 6.47333C18.6932 6.20883 18.678 5.81454 18.4317 5.56829C18.1855 5.32204 17.7912 5.30681 17.5267 5.53333L12 11.06L6.47336 5.52667C6.21194 5.26525 5.78811 5.26525 5.52669 5.52667C5.26528 5.78808 5.26528 6.21192 5.52669 6.47333L11.06 12L5.52669 17.5267C5.33644 17.6896 5.25357 17.9454 5.31215 18.1889C5.37073 18.4325 5.56088 18.6226 5.80441 18.6812C6.04794 18.7398 6.30376 18.6569 6.46669 18.4667L12 12.94L17.5267 18.4667C17.7912 18.6932 18.1855 18.678 18.4317 18.4317C18.678 18.1855 18.6932 17.7912 18.4667 17.5267L12.94 12Z" fill="#737373"/>
</svg>
