<svg width="24" height="24" viewBox="0 0 24 24" fill="none" xmlns="http://www.w3.org/2000/svg">
<path fill-rule="evenodd" clip-rule="evenodd" d="M0 4.97857C0 2.22898 2.22898 0 4.97857 0H5.36154C8.17819 0 10.4615 2.28335 10.4615 5.1V6.55714H17V9.95714H10.4615V17H7.06154V9.95714H4.97857C2.22898 9.95714 0 7.72816 0 4.97857ZM7.06154 6.55714V5.1C7.06154 4.16112 6.30042 3.4 5.36154 3.4H4.97857C4.10675 3.4 3.4 4.10675 3.4 4.97857C3.4 5.85039 4.10675 6.55714 4.97857 6.55714H7.06154Z" fill="#5C426C"/>
<path fill-rule="evenodd" clip-rule="evenodd" d="M24 4.97857C24 2.22898 21.8147 0 19.119 0H19C16.2386 0 14 2.28335 14 5.1V17H17.3333V9.95714H19.119C21.8147 9.95714 24 7.72816 24 4.97857ZM17.3333 6.55714V5.1C17.3333 4.16112 18.0795 3.4 19 3.4H19.119C19.9738 3.4 20.6667 4.10675 20.6667 4.97857C20.6667 5.85039 19.9738 6.55714 19.119 6.55714H17.3333Z" fill="#5C426C"/>
<path fill-rule="evenodd" clip-rule="evenodd" d="M24 19C24 21.7614 21.7167 24 18.9 24L18.6385 24C15.8218 24 13.5385 21.7614 13.5385 19L13.5385 17.3333L7 17.3333L7 14L18.9 14C21.7167 14 24 16.2386 24 19ZM16.9385 17.3333L16.9385 19C16.9385 19.9205 17.6996 20.6667 18.6385 20.6667L18.9 20.6667C19.8389 20.6667 20.6 19.9205 20.6 19C20.6 18.0795 19.8389 17.3333 18.9 17.3333L16.9385 17.3333Z" fill="#5C426C"/>
<path fill-rule="evenodd" clip-rule="evenodd" d="M4.37114e-07 19C1.95703e-07 21.7614 2.23858 24 5 24C7.76142 24 10 21.7614 10 19L10 14L5 14C2.23858 14 6.78525e-07 16.2386 4.37114e-07 19ZM5 20.6667C4.07953 20.6667 3.33333 19.9205 3.33333 19C3.33333 18.0795 4.07953 17.3333 5 17.3333L6.66667 17.3333L6.66667 19C6.66667 19.9205 5.92047 20.6667 5 20.6667Z" fill="#5C426C"/>
</svg>
