<svg width="24" height="24" viewBox="0 0 24 24" fill="none" xmlns="http://www.w3.org/2000/svg">
<path fill-rule="evenodd" clip-rule="evenodd" d="M10.22 1.33334C5.43353 1.33334 1.55333 5.21354 1.55333 10C1.55333 14.7865 5.43353 18.6667 10.22 18.6667C15.0065 18.6667 18.8867 14.7865 18.8867 10C18.8867 5.21354 15.0065 1.33334 10.22 1.33334ZM10.22 2.70001C13.1732 2.69731 15.8371 4.47419 16.9691 7.2018C18.1011 9.92941 17.4782 13.0704 15.3909 15.1595C13.3036 17.2487 10.1633 17.8745 7.43462 16.745C4.70597 15.6155 2.92666 12.9532 2.92666 10C2.94488 5.9785 6.1985 2.7219 10.22 2.70001ZM17.7533 16.58L22.6667 21.5267C22.8346 21.6958 22.8995 21.9416 22.837 22.1716C22.7745 22.4016 22.5941 22.5807 22.3637 22.6416C22.1333 22.7025 21.8879 22.6358 21.72 22.4667L16.8067 17.52L17.7533 16.58Z" fill="black"/>
<mask id="mask0_3_69" style="mask-type:luminance" maskUnits="userSpaceOnUse" x="1" y="1" width="22" height="22">
<path fill-rule="evenodd" clip-rule="evenodd" d="M10.22 1.33334C5.43353 1.33334 1.55333 5.21354 1.55333 10C1.55333 14.7865 5.43353 18.6667 10.22 18.6667C15.0065 18.6667 18.8867 14.7865 18.8867 10C18.8867 5.21354 15.0065 1.33334 10.22 1.33334ZM10.22 2.70001C13.1732 2.69731 15.8371 4.47419 16.9691 7.2018C18.1011 9.92941 17.4782 13.0704 15.3909 15.1595C13.3036 17.2487 10.1633 17.8745 7.43462 16.745C4.70597 15.6155 2.92666 12.9532 2.92666 10C2.94488 5.9785 6.1985 2.7219 10.22 2.70001ZM17.7533 16.58L22.6667 21.5267C22.8346 21.6958 22.8995 21.9416 22.837 22.1716C22.7745 22.4016 22.5941 22.5807 22.3637 22.6416C22.1333 22.7025 21.8879 22.6358 21.72 22.4667L16.8067 17.52L17.7533 16.58Z" fill="white"/>
</mask>
<g mask="url(#mask0_3_69)">
<rect width="24" height="24" fill="#0079B8"/>
</g>
</svg>
